<?xml version="1.0" standalone="no"?><!DOCTYPE svg PUBLIC "-//W3C//DTD SVG 1.1//EN" "http://www.w3.org/Graphics/SVG/1.1/DTD/svg11.dtd"><svg fill='gray' t="1504683282630" class="icon" style="" viewBox="0 0 1171 1024" version="1.1" xmlns="http://www.w3.org/2000/svg" p-id="2357" xmlns:xlink="http://www.w3.org/1999/xlink" width="40" height="40"><defs><style type="text/css"></style></defs><path d="M137.825 512c0-20.803 16.854-37.667 37.694-37.667l828.631 0c20.818 0 37.694 16.719 37.694 37.667 0 20.803-16.854 37.667-37.694 37.667l-828.631 0c-20.818 0-37.694-16.719-37.694-37.667zM137.825 869.841c0-20.803 16.854-37.667 37.694-37.667l828.631 0c20.818 0 37.694 16.719 37.694 37.667 0 20.803-16.854 37.667-37.694 37.667l-828.631 0c-20.818 0-37.694-16.719-37.694-37.667zM137.825 154.159c0-20.803 16.854-37.667 37.694-37.667l828.631 0c20.818 0 37.694 16.719 37.694 37.667 0 20.803-16.854 37.667-37.694 37.667l-828.631 0c-20.818 0-37.694-16.719-37.694-37.667z" p-id="2358"></path></svg>
